# xmcd
#
# Track frame offsets: 
#        150
#        12248
#        20599
#        32896
#        43862
#        54461
#        67690
#        80689
#        96423
#        107010
#        123912
#        133366
#        149280
#        161084
#        172959
#        183776
#        197605
#        212450
#        225188
#        236551
#        254119
#        263896
#
# Disc length: 3744 seconds
#
# Revision: 0
# Processed by: cddbd v1.5.2PL0 Copyright (c) Steve Scherf et al.
# Submitted via: ExactAudioCopy v0.99pb4
#
DISCID=310e9e16
DTITLE=Mike Sanchez - You Better Dig It!
DYEAR=2008
DGENRE=Rock and Roll
TTITLE0=You Better Dig It
TTITLE1=She Can Rock
TTITLE2=I'm Shakin'
TTITLE3=One More Kiss
TTITLE4=Boss Chick
TTITLE5=Make Me Feel A Little Good
TTITLE6=Lipstick Traces
TTITLE7=The Kangaroo
TTITLE8=I'm A Fool To Care
TTITLE9=You Can't Hide
TTITLE10=Heebie Jeebies
TTITLE11=There Is Something On Your Mind
TTITLE12=Bom Bom Lulu
TTITLE13=Sick and Tired
TTITLE14=Bottle It Up and Go
TTITLE15=Highway 60
TTITLE16=No Good Lover
TTITLE17=Baby Shame
TTITLE18=That's All I Need
TTITLE19=Tallahassee Lassie (Bonus)
TTITLE20=Heebie Jeebies (Bonus)
TTITLE21=The Kangaroo (Bonus)
EXTD=
EXTT0=
EXTT1=
EXTT2=
EXTT3=
EXTT4=
EXTT5=
EXTT6=
EXTT7=
EXTT8=
EXTT9=
EXTT10=
EXTT11=
EXTT12=
EXTT13=
EXTT14=
EXTT15=
EXTT16=
EXTT17=
EXTT18=
EXTT19=
EXTT20=
EXTT21=
PLAYORDER=
